<svg width="26" height="24" viewBox="0 0 26 24" fill="none" xmlns="http://www.w3.org/2000/svg">
<path d="M11.2307 1.89391L21.7241 12.3873C23.7406 14.4038 23.7406 17.6704 21.7241 19.687C19.7075 21.7035 16.4409 21.7035 14.4244 19.687L3.01855 8.28116C1.75935 7.02196 1.75935 4.97804 3.01855 3.71884C4.27776 2.45964 6.32168 2.45964 7.58088 3.71884L17.1618 13.2997C17.6636 13.8016 17.6636 14.6228 17.1618 15.1246C16.6599 15.6265 15.8387 15.6265 15.3368 15.1246L6.66841 6.45623L5.29972 7.82493L13.9681 16.4933C15.2273 17.7525 17.2712 17.7525 18.5304 16.4933C19.7896 15.2341 19.7897 13.1902 18.5304 11.931L8.94957 2.35014C6.93303 0.333596 3.6664 0.333596 1.64986 2.35014C-0.366689 4.36669 -0.366689 7.63331 1.64986 9.64986L13.0557 21.0557C15.8296 23.8296 20.3189 23.8296 23.0928 21.0557C25.8667 18.2818 25.8667 13.7924 23.0928 11.0186L12.5994 0.525213L11.2307 1.89391Z" fill="#6D6E71"/>
</svg>
