<svg width="20" height="19" viewBox="0 0 20 19" fill="none" xmlns="http://www.w3.org/2000/svg">
<path fill-rule="evenodd" clip-rule="evenodd" d="M19.2853 9.28565C19.2853 9.57359 19.1562 9.83033 18.9546 9.99728C18.8981 10.0441 18.8359 10.0838 18.7693 10.1152L1.97637 18.4812C1.65109 18.6432 1.26317 18.5834 0.997692 18.3302C0.732216 18.0771 0.642991 17.6819 0.77259 17.3333L3.76406 9.28565L0.772591 1.23804C0.642992 0.889397 0.732216 0.49422 0.997691 0.24107C1.26317 -0.0120796 1.65109 -0.0719011 1.97638 0.0901485L18.7692 8.45606C18.8363 8.48765 18.8989 8.5277 18.9557 8.57488C18.9974 8.60952 19.0358 8.64785 19.0705 8.68929C19.2043 8.8491 19.2853 9.05759 19.2853 9.28565ZM14.5464 8.37461L3.21347 2.72874L5.31216 8.37461L14.5464 8.37461ZM5.31216 10.1967L14.5464 10.1967L3.21347 15.8426L5.31216 10.1967Z" fill="white"/>
</svg>
